HIERARCHY
ROOT Hips
{
	OFFSET 0.000000 0.000000 0.000000
	CHANNELS 6 Xposition Yposition Zposition Xrotation Yrotation Zrotation
	JOINT LeftUpLeg_virtual
	{
		OFFSET 0.000000 0.000000 0.000000
		CHANNELS 3 Xrotation Yrotation Zrotation
		JOINT LeftUpLeg
		{
			OFFSET 15.427100 -6.655098 0.678600
			CHANNELS 3 Xrotation Yrotation Zrotation
			JOINT LeftLeg
			{
				OFFSET 4.081073 -39.591068 13.024000
				CHANNELS 3 Xrotation Yrotation Zrotation
				JOINT LeftFoot
				{
					OFFSET -4.081074 -37.707932 -15.979700
					CHANNELS 3 Xrotation Yrotation Zrotation
					JOINT LeftToeBase
					{
						OFFSET 5.346399 -15.068900 20.645000
						CHANNELS 3 Xrotation Yrotation Zrotation
						JOINT LeftToe_End
						{
							OFFSET 2.754700 0.931300 11.300900
							CHANNELS 3 Xrotation Yrotation Zrotation
							End Site
							{
								OFFSET 0 0 0
							}
						}
					}
				}
			}
		}
	}
	JOINT RightUpLeg_virtual
	{
		OFFSET 0.000000 0.000000 0.000000
		CHANNELS 3 Xrotation Yrotation Zrotation
		JOINT RightUpLeg
		{
			OFFSET -15.569500 -6.655098 0.678600
			CHANNELS 3 Xrotation Yrotation Zrotation
			JOINT RightLeg
			{
				OFFSET -4.081825 -39.591045 13.023800
				CHANNELS 3 Xrotation Yrotation Zrotation
				JOINT RightFoot
				{
					OFFSET 4.081824 -37.707954 -15.979600
					CHANNELS 3 Xrotation Yrotation Zrotation
					JOINT RightToeBase
					{
						OFFSET -5.346400 -15.068900 20.645000
						CHANNELS 3 Xrotation Yrotation Zrotation
						JOINT RightToe_End
						{
							OFFSET -2.754700 0.931300 11.300900
							CHANNELS 3 Xrotation Yrotation Zrotation
							End Site
							{
								OFFSET 0 0 0
							}
						}
					}
				}
			}
		}
	}
	JOINT Spine_virtual
	{
		OFFSET 0.000000 0.000000 0.000000
		CHANNELS 3 Xrotation Yrotation Zrotation
		JOINT Spine
		{
			OFFSET -0.279200 12.230698 -2.892100
			CHANNELS 3 Xrotation Yrotation Zrotation
			JOINT Spine1
			{
				OFFSET -0.232667 10.192268 -1.242267
				CHANNELS 3 Xrotation Yrotation Zrotation
				JOINT Spine1_split
				{
					OFFSET -0.232667 10.192268 -1.242267
					CHANNELS 3 Xrotation Yrotation Zrotation
					JOINT Spine2
					{
						OFFSET -0.232667 10.192268 -1.242267
						CHANNELS 3 Xrotation Yrotation Zrotation
						JOINT Neck_virtual
						{
							OFFSET 0.000000 0.000000 0.000000
							CHANNELS 3 Xrotation Yrotation Zrotation
							JOINT Neck
							{
								OFFSET -0.418800 17.814194 8.416900
								CHANNELS 3 Xrotation Yrotation Zrotation
								JOINT Head
								{
									OFFSET 0.000000 7.031097 3.806800
									CHANNELS 3 Xrotation Yrotation Zrotation
									JOINT HeadTop_End
									{
										OFFSET 0.000000 24.646606 12.978600
										CHANNELS 3 Xrotation Yrotation Zrotation
										End Site
										{
											OFFSET 0 0 0
										}
									}
								}
							}
						}
						JOINT LeftShoulder_virtual
						{
							OFFSET 0.000000 0.000000 0.000000
							CHANNELS 3 Xrotation Yrotation Zrotation
							JOINT LeftShoulder
							{
								OFFSET 8.476499 7.247704 -3.868750
								CHANNELS 3 Xrotation Yrotation Zrotation
								JOINT LeftShoulder_split
								{
									OFFSET 8.476499 7.247704 -3.868750
									CHANNELS 3 Xrotation Yrotation Zrotation
									JOINT LeftArm
									{
										OFFSET 9.308998 -2.777710 0.208600
										CHANNELS 3 Xrotation Yrotation Zrotation
										JOINT LeftForeArm
										{
											OFFSET 29.972298 0.000000 0.000000
											CHANNELS 3 Xrotation Yrotation Zrotation
											JOINT LeftHand
											{
												OFFSET 26.026505 0.000000 0.000000
												CHANNELS 3 Xrotation Yrotation Zrotation
												End Site
												{
													OFFSET 0 0 0
												}
											}
										}
									}
								}
							}
						}
						JOINT RightShoulder_virtual
						{
							OFFSET 0.000000 0.000000 0.000000
							CHANNELS 3 Xrotation Yrotation Zrotation
							JOINT RightShoulder
							{
								OFFSET -7.570500 7.247704 -3.868750
								CHANNELS 3 Xrotation Yrotation Zrotation
								JOINT RightShoulder_split
								{
									OFFSET -7.570500 7.247704 -3.868750
									CHANNELS 3 Xrotation Yrotation Zrotation
									JOINT RightArm
									{
										OFFSET -9.308998 -2.777710 0.208500
										CHANNELS 3 Xrotation Yrotation Zrotation
										JOINT RightForeArm
										{
											OFFSET -29.972300 0.000000 0.000000
											CHANNELS 3 Xrotation Yrotation Zrotation
											JOINT RightHand
											{
												OFFSET -26.026505 0.000000 0.000000
												CHANNELS 3 Xrotation Yrotation Zrotation
												End Site
												{
													OFFSET 0 0 0
												}
											}
										}
									}
								}
							}
						}
					}
				}
			}
		}
	}
}
MOTION
Frames: 9
Frame Time: 0.03333333
18.803766 33.294788 415.447479 0.000000 0.000000 0.000000 56.897026 -44.233733 95.447645 -61.972191 -12.201244 11.666375 36.127869 -6.172996 1.997527 -4.331592 6.188007 -18.129491 -0.235367 3.587817 -16.275537 0.000000 0.000000 0.000000 47.830981 -45.762165 95.904045 -90.788657 -42.681275 -10.630740 127.804915 -6.280846 -22.126178 42.482018 17.321913 42.827086 13.799322 -1.761227 10.878006 0.000000 0.000000 0.000000 56.174157 -52.951171 96.279344 7.862953 -9.340653 -4.892989 21.996324 -11.357067 -0.008037 -0.684494 2.927002 -1.116323 0.000000 0.000000 0.000000 16.755600 -12.361933 -0.118723 14.417932 3.881440 -7.082399 -7.978255 24.296984 -18.653380 0.000000 0.000000 0.000000 20.722954 -12.288790 1.424868 1.060712 -0.386150 -20.434295 -3.077541 -0.551948 1.931905 3.944711 2.585478 -55.853629 29.709110 -16.813761 -4.193439 0.000000 0.000000 0.000000 19.908401 -12.720115 -0.028672 3.276804 21.698167 4.474433 3.862822 6.923700 6.621001 -31.112154 -9.060789 -0.089217 -27.482424 19.403603 3.770164 0.000000 0.000000 0.000000 
18.944592 34.070549 428.778107 0.000000 0.000000 0.000000 55.762190 -43.375874 88.874333 -70.729703 -15.278063 13.562933 36.772707 -6.850439 -1.959679 1.608236 5.068426 -22.546770 1.484219 3.259261 -18.410555 0.000000 0.000000 0.000000 44.959396 -44.092891 88.771764 -97.340455 -39.988220 -21.845276 130.230930 -2.854908 -23.335505 43.948770 20.703956 45.489108 15.176494 -1.998425 11.964074 0.000000 0.000000 0.000000 54.732283 -52.678097 90.152937 8.525806 -7.221049 -4.122633 21.970212 -9.242481 -0.094859 -1.499228 2.906521 -0.810974 0.000000 0.000000 0.000000 16.525837 -10.205425 -0.489688 12.482844 3.872275 -5.106996 -11.342813 23.604791 -15.476425 0.000000 0.000000 0.000000 20.165922 -10.176523 0.815091 0.804138 -0.773842 -21.031715 -2.479784 0.047238 2.393881 7.186684 3.858556 -55.106250 31.234766 -16.447386 -4.878953 0.000000 0.000000 0.000000 19.742491 -10.387795 -0.219206 2.516834 21.873264 5.708375 4.301759 5.852328 6.945723 -33.934483 -11.846861 2.942387 -28.462011 17.888493 2.563200 0.000000 0.000000 0.000000 
18.892866 34.233204 441.607239 0.000000 0.000000 0.000000 52.740603 -43.085332 80.694211 -82.012492 -16.838733 15.497916 41.238493 -7.969151 -5.541187 9.803033 1.667430 -25.341914 2.793601 3.255342 -20.124524 0.000000 0.000000 0.000000 42.062723 -43.464469 79.879418 -99.753178 -36.384923 -31.031838 131.792953 0.361342 -23.531679 43.534646 20.923672 46.466491 18.842243 -1.599675 12.301083 0.000000 0.000000 0.000000 51.013959 -52.415124 81.858335 9.277332 -4.581921 -3.716133 21.324112 -6.865846 -0.535126 -1.769550 2.834466 0.187524 0.000000 0.000000 0.000000 16.013611 -7.804772 -1.185126 9.510141 3.684633 -2.682137 -14.519345 21.983230 -12.096944 0.000000 0.000000 0.000000 19.092610 -7.811560 -0.297778 0.533696 -0.959759 -21.403101 -0.943770 -0.744613 2.344782 11.257114 5.265897 -52.408233 32.559409 -17.808248 -4.729310 0.000000 0.000000 0.000000 19.209702 -7.688532 -0.792223 1.785892 21.234175 7.254783 5.544365 5.196823 6.507292 -34.249850 -16.917795 10.914936 -29.008964 20.981655 2.805867 0.000000 0.000000 0.000000 
18.452579 33.884361 454.185425 0.000000 0.000000 0.000000 47.914819 -43.506242 70.973623 -94.291725 -16.785699 18.341297 50.063384 -9.162050 -8.045840 18.635341 -2.688128 -24.954656 1.789796 3.860923 -20.733152 0.000000 0.000000 0.000000 38.337705 -44.288316 69.381041 -97.147830 -34.162550 -38.003811 132.509905 3.288255 -22.140617 40.794534 17.235100 45.228642 26.083213 -0.385376 11.939351 0.000000 0.000000 0.000000 45.385972 -51.858819 71.755099 9.940283 -1.785391 -3.505987 20.162695 -4.727488 -1.181113 -1.499586 2.848748 1.288704 0.000000 0.000000 0.000000 15.321185 -5.655449 -2.017243 5.914339 3.713967 -0.376891 -17.075628 20.510375 -9.154258 0.000000 0.000000 0.000000 17.744492 -5.687888 -1.660193 0.362585 -0.930497 -21.231527 1.279245 -2.148717 1.978187 15.032025 6.949142 -47.344091 33.418978 -20.735891 -3.880417 0.000000 0.000000 0.000000 18.402003 -5.164675 -1.562166 1.253137 20.003534 8.610431 7.466240 5.254817 5.921044 -29.717224 -22.981847 24.111142 -29.202962 28.769409 4.533188 0.000000 0.000000 0.000000 
17.431984 33.277637 466.541443 0.000000 0.000000 0.000000 42.101699 -44.286165 60.129372 -105.700531 -15.599404 21.590266 63.068423 -9.807682 -8.815875 25.696323 -5.887025 -20.581689 -1.322630 4.793402 -19.724126 0.000000 0.000000 0.000000 34.798024 -45.998039 58.626915 -88.123777 -35.217456 -41.338060 130.425099 6.061438 -19.616838 34.835041 10.946281 43.141148 31.117218 0.788353 10.866559 0.000000 0.000000 0.000000 39.044336 -50.488994 60.492588 10.071216 0.738086 -3.248028 18.663360 -3.245318 -1.842120 -0.637985 2.686138 1.538019 0.000000 0.000000 0.000000 14.626905 -4.159193 -2.791935 2.322793 4.325709 1.425983 -18.898758 20.315614 -6.742240 0.000000 0.000000 0.000000 16.393048 -4.236546 -2.891621 0.281399 -0.735873 -20.058771 3.536829 -3.045663 0.825454 16.165939 9.152325 -39.609134 32.949174 -24.282866 -2.979865 0.000000 0.000000 0.000000 17.355285 -3.390984 -2.328668 1.016086 18.548728 9.366845 9.614183 5.465005 5.162661 -20.154906 -27.537984 41.526666 -29.602713 40.778640 7.904849 0.000000 0.000000 0.000000 
15.728049 32.865795 478.563477 0.000000 0.000000 0.000000 36.896853 -45.319490 49.473417 -114.418311 -13.099517 24.601955 77.669612 -9.113433 -8.089316 28.522590 -6.784602 -12.947823 -4.914351 5.520133 -17.217066 0.000000 0.000000 0.000000 31.650390 -46.826196 48.143678 -72.778165 -38.699548 -39.702913 124.168577 9.638088 -16.527738 28.452761 6.137828 43.147422 29.539001 1.239344 9.739915 0.000000 0.000000 0.000000 33.783301 -48.221658 49.405576 9.410739 2.458526 -2.816590 17.048220 -2.677140 -2.407355 0.126826 2.113379 1.346531 0.000000 0.000000 0.000000 14.005724 -3.556999 -3.406541 -1.050850 5.667554 2.551214 -20.036983 21.752172 -4.755663 0.000000 0.000000 0.000000 15.106724 -3.707104 -3.795751 0.337456 -0.580015 -17.924875 4.510293 -2.753169 -0.815646 12.950740 11.624666 -29.637294 30.105920 -26.852284 -2.929188 0.000000 0.000000 0.000000 16.115427 -2.651502 -2.982704 1.043254 17.175965 9.354887 11.307897 6.144168 4.429458 -8.680006 -28.210609 59.211197 -32.270308 56.302745 14.475917 0.000000 0.000000 0.000000 
13.424790 33.489479 490.086517 0.000000 0.000000 0.000000 33.358005 -45.956487 39.923808 -119.681006 -9.234174 26.309604 90.407594 -7.268262 -6.427468 25.501278 -6.316128 -3.989565 -8.270510 5.679314 -13.387020 0.000000 0.000000 0.000000 29.874903 -47.181997 39.350274 -54.737051 -40.959278 -34.338472 113.663514 15.579631 -13.836987 27.174862 7.505820 46.995806 26.819660 1.904633 9.939483 0.000000 0.000000 0.000000 31.112461 -45.281726 39.649614 7.801970 3.152536 -2.264230 15.457066 -2.964024 -2.834762 0.697852 1.453934 0.477347 0.000000 0.000000 0.000000 13.346896 -3.742578 -3.887197 -3.810840 7.509964 2.998764 -20.778260 24.503427 -2.897582 0.000000 0.000000 0.000000 13.955621 -3.992830 -4.326550 0.425331 -1.060705 -15.020283 4.745278 -0.648098 -1.877010 5.462441 12.326880 -19.049971 24.351098 -26.601152 -4.409383 0.000000 0.000000 0.000000 14.779495 -2.863543 -3.487012 1.122162 16.171105 8.899701 12.700879 7.273073 3.742200 -0.100966 -25.363388 72.584885 -44.392545 72.209504 30.720852 0.000000 0.000000 0.000000 
10.760896 35.491783 500.004395 0.000000 0.000000 0.000000 31.521746 -45.211389 31.763784 -121.138118 -3.803658 25.553864 99.092719 -4.821747 -4.143516 17.247751 -6.182189 4.178111 -11.355908 5.169574 -8.439016 0.000000 0.000000 0.000000 29.211261 -46.295053 32.102224 -38.719110 -39.796869 -28.074478 98.099698 23.438067 -10.380650 31.311141 14.159497 51.410868 28.648310 3.502933 12.382960 0.000000 0.000000 0.000000 31.368801 -42.257076 31.586073 5.404339 2.886509 -1.730850 13.959600 -3.748449 -3.164607 1.025609 1.195848 -0.408357 0.000000 0.000000 0.000000 12.572970 -4.382958 -4.300446 -5.914134 9.456632 2.905765 -21.269747 27.845809 -1.024251 0.000000 0.000000 0.000000 12.883423 -4.727562 -4.557770 0.506388 -2.512952 -11.860934 3.734642 1.951799 -2.092711 -3.523095 9.602153 -10.534608 16.624301 -23.403913 -6.560356 0.000000 0.000000 0.000000 13.443783 -3.660753 -3.899548 1.137407 15.823832 8.382165 13.363199 8.303905 2.767438 4.018984 -21.119317 79.945083 -94.200863 81.332042 84.378579 0.000000 0.000000 0.000000 
8.273329 38.527962 508.509949 0.000000 0.000000 0.000000 31.104538 -42.612095 25.141920 -118.412845 2.951706 21.811424 102.613060 -2.532554 -1.510130 5.185188 -6.430448 10.317504 -14.704740 4.175354 -3.150203 0.000000 0.000000 0.000000 29.652938 -43.642061 26.160922 -26.442143 -36.188992 -22.593262 80.157741 29.620253 -4.357693 38.556705 20.442193 50.519829 32.568531 6.047546 16.522742 0.000000 0.000000 0.000000 33.432898 -39.408344 25.439533 2.816810 1.946333 -1.449854 12.657643 -4.544873 -3.495926 0.999012 1.207452 -0.856241 0.000000 0.000000 0.000000 11.613132 -5.104642 -4.737418 -7.474006 10.971666 2.345531 -21.607090 30.712687 0.779571 0.000000 0.000000 0.000000 11.831325 -5.434026 -4.693004 0.591574 -4.956361 -9.337562 2.219697 3.891545 -1.448118 -10.756385 3.341020 -7.414601 8.970922 -19.064060 -7.888807 0.000000 0.000000 0.000000 12.315179 -4.510878 -4.317795 0.961544 16.101541 8.235955 13.660297 9.131608 2.024825 4.435823 -16.225200 82.336120 -145.263247 78.592501 138.687346 0.000000 0.000000 0.000000 
